<svg xmlns="http://www.w3.org/2000/svg" viewBox="0 0 16.78 17.34"><style>.icon-phone-cls{fill:#ffffff}</style><path class="icon-phone-cls" d="M.38 13.72l2.59-2.68c.52-.53 1.37-.52 1.9.04l1.31 1.35c.08-.05.17-.1.26-.15.82-.47 1.95-1.12 3.14-2.35 1.19-1.23 1.82-2.4 2.28-3.26.05-.09.09-.18.14-.26l-.88-.91-.43-.45c-.53-.55-.55-1.44-.03-1.97L13.25.39c.51-.53 1.37-.52 1.9.04l.73.76-.02.02c.24.32.45.7.6 1.1.14.38.23.75.27 1.11.34 2.94-.95 5.62-4.47 9.27-4.86 5.04-8.78 4.66-8.95 4.64-.37-.05-.72-.14-1.08-.28-.39-.16-.75-.37-1.06-.62l-.02.01-.74-.75c-.53-.55-.55-1.44-.03-1.97"/></svg>