<?xml version="1.0" standalone="no"?>
<!DOCTYPE svg PUBLIC "-//W3C//DTD SVG 20010904//EN"
 "http://www.w3.org/TR/2001/REC-SVG-20010904/DTD/svg10.dtd">
<svg version="1.0" xmlns="http://www.w3.org/2000/svg"
 width="512.000000pt" height="512.000000pt" viewBox="0 0 512.000000 512.000000"
 preserveAspectRatio="xMidYMid meet">
<metadata>
Created by potrace 1.11, written by Peter Selinger 2001-2013
</metadata>
<g transform="translate(0.000000,512.000000) scale(0.100000,-0.100000)"
fill="#000000" stroke="none">
<path d="M4665 4849 c-77 -33 -252 -105 -390 -160 -137 -56 -434 -176 -660
-269 -977 -399 -1226 -501 -1320 -538 -55 -22 -253 -103 -440 -180 -187 -77
-381 -156 -432 -176 -51 -20 -271 -109 -490 -199 -219 -90 -464 -190 -545
-223 l-148 -59 0 -382 0 -383 95 0 95 0 2 321 3 320 315 128 c543 221 1422
579 2100 856 1207 493 1779 725 1790 725 6 0 10 -438 10 -1175 l0 -1175 90 0
90 0 0 1315 c0 1046 -3 1315 -12 1314 -7 0 -76 -27 -153 -60z"/>
<path d="M70 975 l0 -905 275 0 275 0 0 345 0 345 625 0 625 0 0 -345 0 -345
273 2 272 3 0 900 0 900 -273 0 -273 0 1 -332 1 -333 -626 0 -625 0 0 335 0
335 -275 0 -275 0 0 -905z"/>
<path d="M2790 975 l0 -905 273 2 272 3 3 228 2 227 469 0 c479 0 555 -5 601
-39 56 -41 64 -72 68 -253 l4 -168 279 0 279 0 0 183 c0 214 -11 300 -45 367
-31 61 -73 94 -161 124 -38 14 -62 25 -54 25 8 1 42 14 75 30 158 74 215 230
202 546 -11 259 -73 388 -223 463 -126 64 -263 71 -1261 72 l-783 0 0 -905z
m1639 430 c58 -34 75 -82 76 -210 0 -135 -13 -166 -83 -198 -46 -22 -58 -22
-564 -25 l-518 -3 0 231 0 231 528 -3 c506 -3 528 -4 561 -23z"/>
</g>
</svg>
